<?xml version="1.0" standalone="no"?>
<!DOCTYPE svg PUBLIC "-//W3C//DTD SVG 20010904//EN"
 "http://www.w3.org/TR/2001/REC-SVG-20010904/DTD/svg10.dtd">
<svg version="1.0" xmlns="http://www.w3.org/2000/svg"
 width="275.000000pt" height="183.000000pt" viewBox="0 0 275.000000 183.000000"
 preserveAspectRatio="xMidYMid meet">
<metadata>
Created by potrace 1.15, written by Peter Selinger 2001-2017
</metadata>
<g transform="translate(0.000000,183.000000) scale(0.100000,-0.100000)"
fill="#000000" stroke="none">
<path d="M2279 1796 c-38 -26 -74 -88 -65 -111 3 -8 30 -31 60 -51 48 -31 62
-36 96 -31 l40 5 35 -111 c48 -156 102 -356 115 -428 14 -77 -1 -134 -76 -279
-69 -135 -167 -264 -257 -341 -118 -99 -546 -300 -746 -349 -77 -20 -231 -39
-318 -41 l-48 -1 59 -19 c188 -61 464 -42 747 51 137 45 321 130 406 188 145
98 320 340 388 537 26 75 31 209 10 281 -28 99 -73 172 -122 201 -33 19 -51
40 -72 82 -47 93 -71 184 -71 272 0 91 -7 102 -89 144 -28 14 -52 25 -53 25
-2 0 -20 -11 -39 -24z"/>
<path d="M2271 1522 c-6 -10 -15 -56 -20 -102 -6 -46 -13 -85 -16 -88 -3 -3
-5 0 -5 6 0 28 -18 8 -39 -43 -111 -268 -419 -507 -826 -643 -266 -89 -484
-132 -672 -132 -136 0 -225 14 -363 59 -52 16 -96 28 -98 26 -7 -6 106 -76
172 -105 63 -29 182 -64 251 -75 35 -5 43 -12 65 -53 30 -56 40 -60 186 -61
326 -3 841 161 1081 344 134 101 242 265 292 440 11 39 31 97 45 131 23 54 24
67 16 117 -9 59 -48 197 -55 197 -2 0 -9 -8 -14 -18z"/>
</g>
</svg>
